# xmcd
#
# Track frame offsets: 
#        150
#        13643
#        26526
#        41132
#        55791
#        73269
#        81768
#        99301
#        112702
#        127240
#        140961
#        153459
#
# Disc length: 2254 seconds
#
# Revision: 0
# Processed by: cddbd v1.5.2PL0 Copyright (c) Steve Scherf et al.
# Submitted via: ExactAudioCopyFreeDBPlugin 1.0
#
DISCID=a308cc0c
DTITLE=Daddy Long Legs - Evil Eye On You
DYEAR=2012
DGENRE=Blues
TTITLE0=Death Train Blues
TTITLE1=I Feel So Electric
TTITLE2=Happy Home
TTITLE3=Shackin' Up
TTITLE4=You'll Be Mine
TTITLE5=Witch Hunt
TTITLE6=Trouble (Always Come My Ways)
TTITLE7=Sittin' Shotgun
TTITLE8=Comin' After Me
TTITLE9=Candy Sue
TTITLE10=Thirty Days
TTITLE11=Evil Eye
EXTD=
EXTT0=
EXTT1=
EXTT2=
EXTT3=
EXTT4=
EXTT5=
EXTT6=
EXTT7=
EXTT8=
EXTT9=
EXTT10=
EXTT11=
PLAYORDER=
